<svg width="24" height="24" viewBox="0 0 24 24" fill="none" xmlns="http://www.w3.org/2000/svg">
<path fill-rule="evenodd" clip-rule="evenodd" d="M12.5 2C11.6716 2 11 2.6841 11 3.52797C11 4.37185 11.6716 5.05594 12.5 5.05594C13.3284 5.05594 14 4.37185 14 3.52797C14 2.6841 13.3284 2 12.5 2ZM12.5 9.97203C11.6716 9.97203 11 10.6561 11 11.5C11 12.3439 11.6716 13.028 12.5 13.028C13.3284 13.028 14 12.3439 14 11.5C14 10.6561 13.3284 9.97203 12.5 9.97203ZM12.5 17.9441C11.6716 17.9441 11 18.6282 11 19.472C11 20.3159 11.6716 21 12.5 21C13.3284 21 14 20.3159 14 19.472C14 18.6282 13.3284 17.9441 12.5 17.9441Z" fill="#888A91"/>
</svg>
