<svg width="24" height="24" viewBox="0 0 24 24" fill="none" xmlns="http://www.w3.org/2000/svg">
<path fill-rule="evenodd" clip-rule="evenodd" d="M11.5349 3.39535C7.03954 3.39535 3.39535 7.03954 3.39535 11.5349C3.39535 16.0302 7.03954 19.6744 11.5349 19.6744C16.0302 19.6744 19.6744 16.0302 19.6744 11.5349C19.6744 7.03954 16.0302 3.39535 11.5349 3.39535ZM2 11.5349C2 6.26891 6.26891 2 11.5349 2C16.8009 2 21.0698 6.26891 21.0698 11.5349C21.0698 16.8009 16.8009 21.0698 11.5349 21.0698C6.26891 21.0698 2 16.8009 2 11.5349ZM12.4186 9.39536C12.4186 9.01005 12.1062 8.69769 11.7209 8.69769C11.3356 8.69769 11.0232 9.01005 11.0232 9.39536V11.0233H9.3953C9.00999 11.0233 8.69763 11.3356 8.69763 11.7209C8.69763 12.1063 9.00999 12.4186 9.3953 12.4186H11.0232V14.0465C11.0232 14.4318 11.3356 14.7442 11.7209 14.7442C12.1062 14.7442 12.4186 14.4318 12.4186 14.0465V12.4186H14.0465C14.4318 12.4186 14.7441 12.1063 14.7441 11.7209C14.7441 11.3356 14.4318 11.0233 14.0465 11.0233H12.4186V9.39536ZM19.9352 18.9485C19.6627 18.6761 19.221 18.6761 18.9485 18.9485C18.6761 19.221 18.6761 19.6627 18.9485 19.9352L20.809 21.7957C21.0815 22.0681 21.5232 22.0681 21.7957 21.7957C22.0681 21.5232 22.0681 21.0815 21.7957 20.809L19.9352 18.9485Z" fill="#888A91"/>
</svg>
