<svg width="24" height="24" viewBox="0 0 24 24" fill="none" xmlns="http://www.w3.org/2000/svg">
<path d="M3.71597 3.71597C2.47461 4.95734 2 6.81491 2 9.2093V14.7907C2 17.1851 2.47461 19.0427 3.71597 20.284C4.95734 21.5254 6.81491 22 9.2093 22H14.7907C17.1851 22 19.0427 21.5254 20.284 20.284C21.5254 19.0427 22 17.1851 22 14.7907V9.2093C22 6.81491 21.5254 4.95734 20.284 3.71597C19.0427 2.47461 17.1851 2 14.7907 2H9.2093C6.81491 2 4.95734 2.47461 3.71597 3.71597ZM4.70263 4.70263C5.55429 3.85098 6.95253 3.39535 9.2093 3.39535H14.7907C17.0475 3.39535 18.4457 3.85098 19.2974 4.70263C20.149 5.55429 20.6047 6.95253 20.6047 9.2093V14.7907C20.6047 17.0475 20.149 18.4457 19.2974 19.2974C18.4457 20.149 17.0475 20.6047 14.7907 20.6047H9.2093C6.95253 20.6047 5.55429 20.149 4.70263 19.2974C3.85098 18.4457 3.39535 17.0475 3.39535 14.7907V9.2093C3.39535 6.95253 3.85098 5.55429 4.70263 4.70263ZM7.33333 8.40001C7.33333 8.98909 7.81089 9.46665 8.40001 9.46665C8.98913 9.46665 9.46669 8.98909 9.46669 8.40001C9.46669 7.8109 8.98911 7.33333 8.40001 7.33333C7.81091 7.33333 7.33333 7.8109 7.33333 8.40001ZM8.40001 6C9.72549 6 10.8 7.07452 10.8 8.40001C10.8 8.90452 10.6443 9.37267 10.3784 9.75905L14.6174 13.76C14.9468 13.5733 15.3276 13.4667 15.7333 13.4667C16.9852 13.4667 18 14.4815 18 15.7333C18 16.9852 16.9852 18 15.7333 18C14.4815 18 13.4667 16.9852 13.4667 15.7333C13.4667 15.3601 13.5569 15.008 13.7167 14.6975L9.37075 10.5956C9.23141 10.6573 9.0851 10.7061 8.93332 10.7405V13.5663C9.85982 13.851 10.5333 14.7135 10.5333 15.7333C10.5333 16.9852 9.5185 18 8.26666 18C7.01481 18 6 16.9852 6 15.7333C6 14.7135 6.6735 13.851 7.59999 13.5663V10.6634C6.66785 10.3339 6 9.44498 6 8.40001C6 7.07452 7.07453 6 8.40001 6ZM8.26666 16.6667C8.78212 16.6667 9.19998 16.2488 9.19998 15.7333C9.19998 15.2179 8.78211 14.8 8.26666 14.8C7.7512 14.8 7.33333 15.2179 7.33333 15.7333C7.33333 16.2488 7.75119 16.6667 8.26666 16.6667ZM14.8 15.7333C14.8 16.2488 15.2179 16.6667 15.7333 16.6667C16.2488 16.6667 16.6667 16.2488 16.6667 15.7333C16.6667 15.2179 16.2488 14.8 15.7333 14.8C15.2179 14.8 14.8 15.2179 14.8 15.7333Z" fill="#888A91"/>
</svg>
