<svg width="24" height="24" viewBox="0 0 24 24" fill="none" xmlns="http://www.w3.org/2000/svg">
<path fill-rule="evenodd" clip-rule="evenodd" d="M16.32 10.5C14.1142 10.5 12.32 12.2942 12.32 14.5C12.32 15.2503 12.531 15.9635 12.8975 16.5549L12.9036 16.5648L12.9035 16.5648C13.5939 17.7183 14.8649 18.5 16.32 18.5C17.7776 18.5 19.0464 17.7262 19.7352 16.5669L19.74 16.5589L19.74 16.5589C20.1103 15.9531 20.32 15.2478 20.32 14.5C20.32 12.2942 18.5258 10.5 16.32 10.5ZM10.82 14.5C10.82 11.4658 13.2858 9 16.32 9C19.3542 9 21.82 11.4658 21.82 14.5C21.82 15.5305 21.5307 16.5038 21.0224 17.3371C20.0708 18.9356 18.3207 20 16.32 20C14.3172 20 12.5697 18.924 11.6194 17.3401C11.1079 16.5126 10.82 15.5277 10.82 14.5ZM13.8 14.48C13.8 14.0658 14.1358 13.73 14.55 13.73H15.57V12.75C15.57 12.3358 15.9058 12 16.32 12C16.7342 12 17.07 12.3358 17.07 12.75V13.73H18.1C18.5142 13.73 18.85 14.0658 18.85 14.48C18.85 14.8942 18.5142 15.23 18.1 15.23H17.07V16.3C17.07 16.7142 16.7342 17.05 16.32 17.05C15.9058 17.05 15.57 16.7142 15.57 16.3V15.23H14.55C14.1358 15.23 13.8 14.8942 13.8 14.48Z" fill="#888A91"/>
<path fill-rule="evenodd" clip-rule="evenodd" d="M4.77 2.5C4.09774 2.5 3.5 3.05029 3.5 3.87V6.20001C3.5 6.35419 3.56005 6.62213 3.70131 6.93567C3.83911 7.24153 4.02112 7.51699 4.19555 7.69492L4.20368 7.70321L4.20362 7.70327L8.04362 11.7433C8.05831 11.7588 8.07233 11.7748 8.08565 11.7915C8.33874 12.1078 8.57573 12.5265 8.75072 12.9611C8.92403 13.3916 9.06 13.8956 9.06 14.38V19.73C9.06 20.7193 10.195 21.3324 11.0401 20.8155L12.4433 19.9098C12.452 19.9042 12.4608 19.8988 12.4697 19.8935C12.5615 19.8395 12.7051 19.6931 12.8302 19.4514C12.9388 19.2416 12.9962 19.0317 13.0078 18.8767C12.4427 18.4596 11.9735 17.9326 11.618 17.3377C11.1095 16.5043 10.82 15.5308 10.82 14.5C10.82 11.4658 13.2858 9 16.32 9C16.5976 9 16.8728 9.02061 17.1419 9.0627L18.6016 7.77713C18.7744 7.59521 18.9732 7.30101 19.1299 6.95684C19.2929 6.59853 19.38 6.25245 19.38 5.98999V3.77002C19.38 3.07423 18.8058 2.5 18.11 2.5H4.77ZM2 3.87C2 2.2697 3.22226 1 4.77 1H18.11C19.6342 1 20.88 2.24581 20.88 3.77002V5.98999C20.88 6.53753 20.7121 7.10145 20.4951 7.57816C20.277 8.05752 19.9789 8.51523 19.6556 8.84506C19.6427 8.85814 19.6294 8.87075 19.6157 8.88285L17.8557 10.4328C17.6721 10.5946 17.4211 10.6565 17.1833 10.5989C16.9153 10.5339 16.6249 10.5 16.32 10.5C14.1142 10.5 12.32 12.2942 12.32 14.5C12.32 15.2478 12.5297 15.9531 12.9 16.5589L12.9041 16.5656L12.904 16.5657C13.2153 17.0872 13.6409 17.5273 14.1519 17.8405C14.3744 17.9769 14.51 18.2191 14.51 18.48V18.82C14.51 19.272 14.3673 19.7452 14.1623 20.1411C13.9624 20.5271 13.656 20.9305 13.2454 21.1774L11.8467 22.0802L11.8344 22.0879C10.0601 23.185 7.56 21.9785 7.56 19.73V14.38C7.56 14.1544 7.49097 13.8485 7.35928 13.5214C7.23457 13.2117 7.0749 12.9356 6.93241 12.7515L3.12009 8.74058C2.79645 8.40908 2.52504 7.97653 2.33369 7.55181C2.14495 7.13287 2 6.64583 2 6.20001V3.87Z" fill="#888A91"/>
</svg>
