<svg width="24" height="24" viewBox="0 0 24 24" fill="none" xmlns="http://www.w3.org/2000/svg">
<path fill-rule="evenodd" clip-rule="evenodd" d="M5.61344 3.39571C4.92944 3.39571 4.37551 3.93707 4.38473 4.6543L4.38485 4.66335L4.38479 6.82397C4.38479 6.97171 4.44113 7.21944 4.57402 7.50579C4.70381 7.78546 4.87704 8.03773 5.04759 8.20357L5.06069 8.21664L8.73066 11.9804C8.74491 11.995 8.7585 12.0102 8.77142 12.026C9.01533 12.3247 9.24196 12.7178 9.40887 13.1246C9.57391 13.5268 9.70334 13.9976 9.70334 14.4489V19.4254C9.70334 20.3082 10.7792 20.9437 11.648 20.4319L12.9875 19.5866L13.0005 19.5786C13.1034 19.5168 13.2457 19.3685 13.3656 19.1445C13.4847 18.922 13.537 18.7085 13.537 18.5751V14.5326C13.537 14.0445 13.6602 13.5275 13.8606 13.0672C14.0593 12.611 14.3557 12.1609 14.7455 11.8368L18.8761 8.29118C19.0413 8.12029 19.2303 7.84713 19.3787 7.52996C19.5337 7.19858 19.6154 6.88141 19.6154 6.64275V4.57971C19.6154 3.95705 19.0746 3.39571 18.3724 3.39571H5.61344ZM3.00018 4.66755C2.98333 3.15681 4.17726 2 5.61344 2H18.3724C19.7919 2 21 3.13931 21 4.57971V6.64275C21 7.15683 20.838 7.68302 20.631 8.1253C20.4226 8.57089 20.1392 8.99387 19.8352 9.29839C19.8226 9.31101 19.8096 9.32313 19.7961 9.33473L15.6289 12.9117C15.448 13.0612 15.2658 13.3129 15.1285 13.6282C14.992 13.9416 14.9216 14.2679 14.9216 14.5326V18.5751C14.9216 18.9993 14.7803 19.4409 14.5841 19.8074C14.3899 20.1701 14.0974 20.542 13.7165 20.7733L12.3746 21.62L12.3599 21.629C10.7067 22.6154 8.31872 21.5513 8.31872 19.4254V14.4489C8.31872 14.2452 8.25463 13.9632 8.12939 13.658C8.01103 13.3696 7.85858 13.1103 7.72 12.9349L4.07921 9.20117C3.7655 8.89396 3.50405 8.4941 3.31985 8.0972C3.13736 7.70398 3.00018 7.24775 3.00018 6.82397V4.66755Z" fill="#888A91"/>
</svg>
