<svg width="24" height="24" viewBox="0 0 24 24" fill="none" xmlns="http://www.w3.org/2000/svg">
<path fill-rule="evenodd" clip-rule="evenodd" d="M10.8391 2.69176C10.8424 3.07706 10.5327 3.39206 10.1474 3.39532C8.55706 3.40881 7.38501 3.46052 6.47703 3.63838C5.58853 3.81241 5.00448 4.09797 4.55365 4.5488C4.02356 5.07889 3.71939 5.79607 3.55946 6.98562C3.39683 8.19523 3.39535 9.7847 3.39535 11.9976C3.39535 14.2104 3.39683 15.7999 3.55946 17.0095C3.71939 18.1991 4.02356 18.9163 4.55365 19.4463C5.08375 19.9764 5.80093 20.2806 6.99047 20.4405C8.20008 20.6032 9.78955 20.6047 12.0024 20.6047C14.2153 20.6047 15.8048 20.6032 17.0144 20.4405C18.2039 20.2806 18.9211 19.9764 19.4512 19.4463C19.902 18.9955 20.1876 18.4115 20.3616 17.523C20.5395 16.615 20.5912 15.4429 20.6047 13.8526C20.6079 13.4673 20.9229 13.1576 21.3082 13.1609C21.6935 13.1641 22.0032 13.4791 22 13.8644C21.9865 15.4499 21.9366 16.7412 21.731 17.7912C21.5215 18.8607 21.1416 19.7293 20.4379 20.433C19.6053 21.2656 18.5446 21.6427 17.2003 21.8234C15.887 22 14.2037 22 12.0558 22H11.9491C9.80114 22 8.11788 22 6.80454 21.8234C5.46027 21.6427 4.39955 21.2656 3.56699 20.433C2.73444 19.6004 2.35729 18.5397 2.17655 17.1955C1.99998 15.8821 1.99999 14.1989 2 12.051V11.9442C1.99999 9.79628 1.99998 8.11303 2.17655 6.79969C2.35729 5.45542 2.73444 4.3947 3.56699 3.56214C4.27072 2.85841 5.13933 2.47854 6.20881 2.26905C7.25881 2.06338 8.55006 2.01347 10.1356 2.00003C10.5209 1.99676 10.8359 2.30646 10.8391 2.69176ZM16.1578 2.20434C16.4303 1.93189 16.872 1.93189 17.1445 2.20434L21.7957 6.85551C22.0681 7.12797 22.0681 7.56971 21.7957 7.84217L17.1445 12.4933C16.872 12.7658 16.4303 12.7658 16.1578 12.4933C15.8854 12.2209 15.8854 11.7791 16.1578 11.5067L19.618 8.04651H13.8605C12.4172 8.04651 11.5654 8.7507 11.267 9.05053L11.0882 9.23017L10.911 9.40655C10.6112 9.70492 9.90698 10.5568 9.90698 12V14.7907C9.90698 15.176 9.59462 15.4884 9.2093 15.4884C8.82399 15.4884 8.51163 15.176 8.51163 14.7907V12C8.51163 10.0616 9.467 8.875 9.92674 8.4175C9.92674 8.4175 9.92674 8.4175 9.92674 8.4175L10.104 8.24112L10.278 8.06628C10.7355 7.60654 11.9221 6.65116 13.8605 6.65116H19.618L16.1578 3.19101C15.8854 2.91855 15.8854 2.4768 16.1578 2.20434Z" fill="#888A91"/>
</svg>
