<svg width="24" height="24" viewBox="0 0 24 24" fill="none" xmlns="http://www.w3.org/2000/svg">
<path fill-rule="evenodd" clip-rule="evenodd" d="M11.5349 3.39535C7.03954 3.39535 3.39535 7.03954 3.39535 11.5349C3.39535 16.0302 7.03954 19.6744 11.5349 19.6744C16.0302 19.6744 19.6744 16.0302 19.6744 11.5349C19.6744 7.03954 16.0302 3.39535 11.5349 3.39535ZM2 11.5349C2 6.26891 6.26891 2 11.5349 2C16.8009 2 21.0698 6.26891 21.0698 11.5349C21.0698 16.8009 16.8009 21.0698 11.5349 21.0698C6.26891 21.0698 2 16.8009 2 11.5349ZM8.51163 11.7209C8.51163 11.3356 8.82399 11.0233 9.2093 11.0233H13.8605C14.2458 11.0233 14.5581 11.3356 14.5581 11.7209C14.5581 12.1063 14.2458 12.4186 13.8605 12.4186H9.2093C8.82399 12.4186 8.51163 12.1063 8.51163 11.7209ZM19.9352 18.9485C19.6627 18.6761 19.221 18.6761 18.9485 18.9485C18.6761 19.221 18.6761 19.6627 18.9485 19.9352L20.809 21.7957C21.0815 22.0681 21.5232 22.0681 21.7957 21.7957C22.0681 21.5232 22.0681 21.0815 21.7957 20.809L19.9352 18.9485Z" fill="#888A91"/>
</svg>
