<svg width="24" height="24" viewBox="0 0 24 24" fill="none" xmlns="http://www.w3.org/2000/svg">
<path d="M11.003 4.34297C11.3989 3.55556 11.7991 3.39501 11.9968 3.39501C12.1933 3.39501 12.591 3.55355 12.9824 4.34036L14.6187 7.61302C14.793 7.9674 15.0843 8.27032 15.3852 8.49235C15.6874 8.7153 16.0628 8.90338 16.45 8.96792L19.4167 9.46082C19.4166 9.4608 19.4168 9.46084 19.4167 9.46082C20.2447 9.59891 20.5165 9.92525 20.5793 10.1208C20.6417 10.3148 20.6123 10.736 20.016 11.3283L20.0143 11.33L17.7079 13.6364C17.408 13.9362 17.2075 14.3371 17.0969 14.7235C16.9862 15.1101 16.9448 15.5548 17.0369 15.9654L17.6981 18.8246C17.9449 19.8957 17.6962 20.2813 17.5728 20.3712C17.4482 20.4621 17.0019 20.5801 16.0541 20.0204C16.0543 20.0206 16.0539 20.0203 16.0541 20.0204L13.274 18.3747C13.2741 18.3747 13.2739 18.3746 13.274 18.3747C12.8891 18.1467 12.4256 18.0542 12.0015 18.0542C11.5765 18.0542 11.1133 18.1469 10.7265 18.372L7.94058 20.0212C7.00045 20.5791 6.55371 20.4605 6.42685 20.3679C6.30053 20.2758 6.05179 19.8879 6.2977 18.8252L6.95802 15.97L6.95906 15.9654C7.0511 15.5548 7.00971 15.1101 6.89902 14.7235C6.78843 14.3371 6.58788 13.9362 6.28805 13.6364L3.98164 11.33C3.38923 10.7375 3.35802 10.3152 3.4205 10.1195C3.48276 9.92456 3.75227 9.59873 4.5796 9.46076C4.57949 9.46078 4.57972 9.46074 4.5796 9.46076L7.54597 8.96792L7.54842 8.96751C7.93168 8.90242 8.30414 8.71363 8.60387 8.49139C8.90274 8.26979 9.19374 7.96715 9.36797 7.61297L11.003 4.34297C11.0029 4.34315 11.0031 4.34279 11.003 4.34297ZM14.2311 3.7185C13.7389 2.7293 12.9696 2 11.9968 2C11.0251 2 10.2534 2.72806 9.75655 3.7165L8.11909 6.99141L8.11655 6.99654C8.06742 7.09684 7.94997 7.23959 7.773 7.37081C7.59663 7.50158 7.42554 7.57314 7.31586 7.59202C7.31553 7.59208 7.3152 7.59213 7.31487 7.59219L4.35062 8.08468C3.28101 8.26295 2.38274 8.78347 2.09161 9.69518C1.80068 10.6062 2.22982 11.551 2.99522 12.3164L5.30163 14.6228C5.3924 14.7136 5.4941 14.8846 5.55788 15.1074C5.62128 15.3288 5.62664 15.5297 5.59823 15.6585C5.5981 15.6591 5.59796 15.6597 5.59783 15.6603L4.93859 18.5107C4.9386 18.5107 4.93859 18.5108 4.93859 18.5107C4.66373 19.6986 4.75907 20.8779 5.60458 21.4948C6.44957 22.1114 7.60244 21.844 8.65252 21.2208L11.428 19.5778C11.4286 19.5774 11.4292 19.5771 11.4298 19.5768C11.5546 19.5047 11.7602 19.4492 12.0015 19.4492C12.2444 19.4492 12.4458 19.5055 12.5631 19.5749L15.3441 21.2212C16.3954 21.8422 17.5497 22.1145 18.3946 21.4985C19.2407 20.8817 19.3314 19.7002 19.0575 18.5114L18.3981 15.6603C18.398 15.6597 18.3978 15.6591 18.3977 15.6585C18.3693 15.5297 18.3746 15.3288 18.438 15.1074C18.5018 14.8846 18.6035 14.7136 18.6943 14.6228L20.999 12.3181C20.9993 12.3177 20.9997 12.3174 21 12.3171C21.7702 11.5517 22.2006 10.6062 21.9074 9.69391C21.6145 8.78278 20.7146 8.26289 19.6457 8.08474L16.679 7.59184C16.6791 7.59186 16.6788 7.59182 16.679 7.59184M14.2311 3.7185C14.2312 3.7187 14.231 3.71829 14.2311 3.7185Z" fill="#888A91"/>
</svg>
