<svg width="24" height="24" viewBox="0 0 24 24" fill="none" xmlns="http://www.w3.org/2000/svg">
<path fill-rule="evenodd" clip-rule="evenodd" d="M9.17308 4.79545C7.33213 4.79545 5.83974 6.29462 5.83974 8.14394C5.83974 9.99326 7.33213 11.4924 9.17308 11.4924C11.014 11.4924 12.5064 9.99326 12.5064 8.14394C12.5064 6.29462 11.014 4.79545 9.17308 4.79545ZM4.30128 8.14394C4.30128 5.44109 6.48246 3.25 9.17308 3.25C11.8637 3.25 14.0449 5.44109 14.0449 8.14394C14.0449 10.8468 11.8637 13.0379 9.17308 13.0379C6.48246 13.0379 4.30128 10.8468 4.30128 8.14394ZM22.0247 9.65814C22.3251 9.95991 22.3251 10.4492 22.0247 10.7509L17.9221 14.8722C17.6217 15.1739 17.1347 15.1739 16.8343 14.8722L14.783 12.8116C14.4826 12.5098 14.4826 12.0205 14.783 11.7188C15.0834 11.417 15.5704 11.417 15.8709 11.7188L17.3782 13.233L20.9368 9.65814C21.2372 9.35638 21.7243 9.35638 22.0247 9.65814ZM4.39496 15.9202C5.65149 15.0787 7.34306 14.5833 9.17308 14.5833C11.0031 14.5833 12.6947 15.0787 13.9512 15.9202C15.2023 16.7581 16.0962 18.0005 16.0962 19.4773C16.0962 19.904 15.7518 20.25 15.3269 20.25C14.9021 20.25 14.5577 19.904 14.5577 19.4773C14.5577 18.678 14.0739 17.8598 13.0978 17.2061C12.1271 16.556 10.7417 16.1288 9.17308 16.1288C7.60442 16.1288 6.21907 16.556 5.24834 17.2061C4.27224 17.8598 3.78846 18.678 3.78846 19.4773C3.78846 19.904 3.44407 20.25 3.01923 20.25C2.5944 20.25 2.25 19.904 2.25 19.4773C2.25 18.0005 3.14381 16.7581 4.39496 15.9202Z" fill="#888A91"/>
</svg>
