<svg width="24" height="24" viewBox="0 0 24 24" fill="none" xmlns="http://www.w3.org/2000/svg">
<path fill-rule="evenodd" clip-rule="evenodd" d="M15.2804 4.21967C14.9875 3.92678 14.5126 3.92678 14.2197 4.21967C13.9268 4.51256 13.9268 4.98744 14.2197 5.28033L19.7397 10.8003C19.8015 10.8622 19.8554 10.9292 19.9012 11H19.6094L18.75 11L17.9393 11H2.75C2.33579 11 2 11.3358 2 11.75C2 12.1642 2.33579 12.5 2.75 12.5H17.9394H18.25H19.0938H19.5H19.7776C19.7653 12.5135 19.7527 12.5267 19.7397 12.5397L14.2197 18.0597C13.9268 18.3526 13.9268 18.8274 14.2197 19.1203C14.5126 19.4132 14.9875 19.4132 15.2804 19.1203L20.8004 13.6003C21.8633 12.5374 21.8633 10.8026 20.8004 9.73968L15.2804 4.21967Z" fill="#888A91"/>
</svg>
