<svg width="24" height="24" viewBox="0 0 24 24" fill="none" xmlns="http://www.w3.org/2000/svg">
<path fill-rule="evenodd" clip-rule="evenodd" d="M7.22696 15.7124C6.93704 16.0023 6.93704 16.4831 7.22696 16.773C7.51687 17.0629 7.9977 17.0629 8.28762 16.773L12 13.0607L15.7123 16.773C16.0022 17.0629 16.483 17.0629 16.773 16.773C17.0629 16.4831 17.0629 16.0023 16.773 15.7124L13.0606 12L16.7729 8.28774C17.0628 7.99783 17.0628 7.51699 16.7729 7.22708C16.483 6.93717 16.0022 6.93717 15.7122 7.22708L12 10.9394L8.28767 7.22708C7.99776 6.93717 7.51692 6.93717 7.22701 7.22708C6.93709 7.51699 6.93709 7.99783 7.22701 8.28774L10.9393 12L7.22696 15.7124Z" fill="#888A91"/>
</svg>
