<svg width="24" height="24" viewBox="0 0 24 24" fill="none" xmlns="http://www.w3.org/2000/svg">
<path fill-rule="evenodd" clip-rule="evenodd" d="M5.58974 8.89394C5.58974 7.04462 7.08213 5.54545 8.92308 5.54545C10.764 5.54545 12.2564 7.04462 12.2564 8.89394C12.2564 10.7433 10.764 12.2424 8.92308 12.2424C7.08213 12.2424 5.58974 10.7433 5.58974 8.89394ZM8.92308 4C6.23246 4 4.05128 6.19109 4.05128 8.89394C4.05128 11.5968 6.23246 13.7879 8.92308 13.7879C11.6137 13.7879 13.7949 11.5968 13.7949 8.89394C13.7949 6.19109 11.6137 4 8.92308 4ZM8.92308 15.3333C7.09306 15.3333 5.40149 15.8287 4.14496 16.6702C2.89381 17.5081 2 18.7505 2 20.2273C2 20.654 2.3444 21 2.76923 21C3.19407 21 3.53846 20.654 3.53846 20.2273C3.53846 19.428 4.02224 18.6098 4.99834 17.9561C5.96907 17.306 7.35442 16.8788 8.92308 16.8788C10.4917 16.8788 11.8771 17.306 12.8478 17.9561C13.8239 18.6098 14.3077 19.428 14.3077 20.2273C14.3077 20.654 14.6521 21 15.0769 21C15.5018 21 15.8462 20.654 15.8462 20.2273C15.8462 18.7505 14.9523 17.5081 13.7012 16.6702C12.4447 15.8287 10.7531 15.3333 8.92308 15.3333ZM18.0934 11.4897C18.3876 11.1818 18.3776 10.6927 18.0712 10.3971C17.7647 10.1016 17.2778 10.1115 16.9835 10.4194L14.522 12.9952C14.2363 13.2942 14.2363 13.7664 14.522 14.0654L16.9835 16.6412C17.2778 16.9491 17.7647 16.959 18.0712 16.6635C18.3776 16.3679 18.3876 15.8788 18.0934 15.5709L16.8817 14.303H21.2308C21.6556 14.303 22 13.9571 22 13.5303C22 13.1035 21.6556 12.7576 21.2308 12.7576H16.8817L18.0934 11.4897Z" fill="#888A91"/>
</svg>
