<svg width="24" height="24" viewBox="0 0 24 24" fill="none" xmlns="http://www.w3.org/2000/svg">
<path fill-rule="evenodd" clip-rule="evenodd" d="M18.3509 2.46339C18.6417 2.17887 19.1131 2.17887 19.4038 2.46339C20.1248 3.1689 20.6966 4.00645 21.0868 4.92823C21.4768 5.84963 21.6786 6.83741 21.6786 7.83557C21.6786 8.83348 21.4773 9.82165 21.0872 10.7433C20.697 11.6652 20.1247 12.5028 19.4038 13.2082C19.1131 13.4927 18.6417 13.4927 18.3509 13.2082C18.0602 12.9237 18.0602 12.4623 18.3509 12.1778C18.9337 11.6075 19.3962 10.9305 19.7115 10.1856C20.0269 9.44048 20.1896 8.64177 20.1896 7.83557C20.1896 7.02962 20.0266 6.23125 19.7111 5.48586C19.3958 4.74086 18.9336 4.06394 18.3509 3.49375C18.0602 3.20923 18.0602 2.74792 18.3509 2.46339ZM8.95059 4.67857C7.1688 4.67857 5.72438 6.09207 5.72438 7.83571C5.72438 9.57936 7.1688 10.9929 8.95059 10.9929C10.7324 10.9929 12.1768 9.57936 12.1768 7.83571C12.1768 6.09207 10.7324 4.67857 8.95059 4.67857ZM4.23536 7.83571C4.23536 5.28731 6.34644 3.22143 8.95059 3.22143C11.5547 3.22143 13.6658 5.28731 13.6658 7.83571C13.6658 10.3841 11.5547 12.45 8.95059 12.45C6.34644 12.45 4.23536 10.3841 4.23536 7.83571ZM16.195 4.57322C16.4857 4.28869 16.9571 4.28869 17.2479 4.57321C17.6857 5.00169 18.033 5.51037 18.27 6.0702C18.5069 6.62992 18.6291 7.23024 18.6291 7.83632C18.6291 8.44256 18.5069 9.04151 18.2701 9.60108C18.0332 10.1607 17.6858 10.6699 17.2479 11.0986C16.9571 11.3831 16.4857 11.3831 16.195 11.0986C15.9042 10.814 15.9042 10.3527 16.195 10.0682C16.4944 9.77518 16.7322 9.42668 16.8944 9.04345C17.0567 8.66014 17.1401 8.25063 17.1401 7.83632C17.1401 7.42183 17.0565 7.01098 16.8943 6.62782C16.7322 6.24478 16.4945 5.89674 16.195 5.60357C15.9042 5.31905 15.9042 4.85774 16.195 4.57322ZM4.32602 15.1676C5.54217 14.3742 7.17938 13.9071 8.95059 13.9071C10.7218 13.9071 12.359 14.3742 13.5752 15.1676C14.7861 15.9576 15.6512 17.129 15.6512 18.5214C15.6512 18.9238 15.3178 19.25 14.9067 19.25C14.4955 19.25 14.1622 18.9238 14.1622 18.5214C14.1622 17.7678 13.6939 16.9964 12.7492 16.38C11.8097 15.7671 10.4688 15.3643 8.95059 15.3643C7.43235 15.3643 6.09151 15.7671 5.15198 16.38C4.20725 16.9964 3.73902 17.7678 3.73902 18.5214C3.73902 18.9238 3.40569 19.25 2.99451 19.25C2.58333 19.25 2.25 18.9238 2.25 18.5214C2.25 17.129 3.11508 15.9576 4.32602 15.1676Z" fill="#888A91"/>
</svg>
