<svg width="24" height="24" viewBox="0 0 24 24" fill="none" xmlns="http://www.w3.org/2000/svg">
<path fill-rule="evenodd" clip-rule="evenodd" d="M5.32861 14.4161C5.67737 14.7648 5.87667 15.4624 5.76705 15.9506L5.24889 18.1927C5.20903 18.392 5.44818 18.5215 5.58769 18.382L16.3197 7.65C16.0307 7.4806 15.7617 7.23149 15.6321 6.9724L13.9182 3.53457C13.42 2.54806 12.7424 2 12.005 2C11.2676 2 10.59 2.54806 10.0917 3.53457L8.37781 6.9724C8.16856 7.38096 7.6205 7.77955 7.17208 7.85926L4.06309 8.37743C3.00682 8.5568 2.29933 9.0351 2.07014 9.73263C1.85091 10.4302 2.14986 11.2373 2.90718 11.9946L5.32861 14.4161ZM18.2429 15.9506C18.1233 15.4624 18.3226 14.7748 18.6814 14.4161L21.0928 11.9946C21.8501 11.2373 22.1491 10.4302 21.9299 9.73265C21.7007 9.03512 20.9932 8.55681 19.9369 8.37745L18.9305 8.20805C18.3027 8.09844 17.655 8.3077 17.1966 8.76608L5.07949 20.8832C5.18911 21.1821 5.35851 21.4113 5.5877 21.5807C6.19555 22.0291 7.14219 21.9195 8.24828 21.2718L11.1679 19.538C11.6263 19.2689 12.3836 19.2689 12.842 19.538L15.7617 21.2718C16.4194 21.6604 17.0172 21.8498 17.5255 21.8498C17.8742 21.8498 18.1732 21.7601 18.4223 21.5807C19.0401 21.1323 19.2195 20.1956 18.9305 18.95L18.2429 15.9506Z" fill="#888A91"/>
</svg>
