<svg width="24" height="24" viewBox="0 0 24 24" fill="none" xmlns="http://www.w3.org/2000/svg">
<path fill-rule="evenodd" clip-rule="evenodd" d="M11.6248 2H8.58919C7.8035 2 7.72613 2.71036 7.78565 3.06553L8.58919 7.08177C8.67847 7.49159 8.58919 7.65552 8.4999 7.73748L7.87493 8.3932C6.44641 9.78658 6 11.18 6 11.7537C6 12.2127 6.44641 12.4914 6.71426 12.4914H11.6248H16.5353C16.8032 12.4914 17.2496 12.2127 17.2496 11.7537C17.2496 11.18 16.8032 9.78658 15.3746 8.3932L14.7497 7.73748C14.6604 7.65552 14.5711 7.49159 14.6604 7.08177L15.4639 3.06553C15.5234 2.71036 15.4461 2 14.6604 2H11.6248ZM10.551 12.9835H11.6223H12.6937C13.1223 12.9835 13.1699 13.3114 13.1401 13.4753L12.0688 21.1799C11.9285 21.7378 11.8061 21.9282 11.7216 21.9626C11.6907 21.986 11.6512 22 11.608 22C11.5274 22 11.4592 21.9509 11.437 21.8834C11.3633 21.7803 11.274 21.5699 11.1759 21.1799L10.1045 13.4753C10.0748 13.3114 10.1224 12.9835 10.551 12.9835Z" fill="#888A91"/>
</svg>
