<svg width="24" height="24" viewBox="0 0 24 24" fill="none" xmlns="http://www.w3.org/2000/svg">
<path d="M12 2C11.4477 2 11 2.44772 11 3L11 6.34342C11 6.8957 11.4477 7.34342 12 7.34342C12.5523 7.34342 13 6.8957 13 6.34342L13 3C13 2.44772 12.5523 2 12 2ZM19.0713 4.92898C18.6808 4.53846 18.0476 4.53846 17.6571 4.92898L15.2929 7.29313C14.9024 7.68365 14.9024 8.31682 15.2929 8.70734C15.6835 9.09786 16.3166 9.09786 16.7071 8.70734L19.0713 6.3432C19.4618 5.95267 19.4618 5.31951 19.0713 4.92898ZM4.92898 4.92898C4.53846 5.31951 4.53846 5.95267 4.92898 6.3432L7.29313 8.70734C7.68365 9.09787 8.31682 9.09787 8.70734 8.70734C9.09787 8.31682 9.09787 7.68365 8.70734 7.29313L6.3432 4.92898C5.95267 4.53846 5.31951 4.53846 4.92898 4.92898ZM16.6566 12C16.6566 12.5523 17.1043 13 17.6566 13H21C21.5523 13 22 12.5523 22 12C22 11.4477 21.5523 11 21 11H17.6566C17.1043 11 16.6566 11.4477 16.6566 12ZM2 12C2 12.5523 2.44772 13 3 13H6.34315C6.89543 13 7.34315 12.5523 7.34315 12C7.34315 11.4477 6.89543 11 6.34315 11H3C2.44772 11 2 11.4477 2 12ZM8.70737 15.2929C8.31684 14.9024 7.68368 14.9024 7.29315 15.2929L4.9292 17.6569C4.53868 18.0474 4.53868 18.6805 4.9292 19.0711C5.31972 19.4616 5.95289 19.4616 6.34341 19.0711L8.70737 16.7071C9.09789 16.3166 9.09789 15.6834 8.70737 15.2929ZM15.2929 15.2929C14.9024 15.6834 14.9024 16.3166 15.2929 16.7071L17.6569 19.0711C18.0474 19.4616 18.6805 19.4616 19.0711 19.0711C19.4616 18.6805 19.4616 18.0474 19.0711 17.6569L16.7071 15.2929C16.3166 14.9024 15.6834 14.9024 15.2929 15.2929ZM12 16.6569C11.4477 16.6569 11 17.1046 11 17.6569V21C11 21.5523 11.4477 22 12 22C12.5523 22 13 21.5523 13 21L13 17.6569C13 17.1046 12.5523 16.6569 12 16.6569Z" fill="#888A91"/>
</svg>
