<svg width="24" height="24" viewBox="0 0 24 24" fill="none" xmlns="http://www.w3.org/2000/svg">
<path d="M10.8026 22C10.3557 22 9.90879 21.8883 9.4991 21.6648C8.67043 21.1993 8.1769 20.3706 8.1769 19.4302V14.4488C8.1769 13.9739 7.86963 13.2756 7.58099 12.9125L4.04283 9.1974C3.45623 8.61081 3 7.58659 3 6.8324V4.67228C3 3.17321 4.13596 2 5.57916 2H18C19.4246 2 20.5791 3.15458 20.5791 4.57916V6.6462C20.5791 7.62385 19.9926 8.75046 19.4339 9.29981C19.1639 9.56983 18.717 9.56983 18.4469 9.29981C18.1769 9.02979 18.1769 8.58286 18.4469 8.31284C18.7915 7.96834 19.1825 7.19555 19.1825 6.6462V4.57916C19.1825 3.92739 18.6517 3.39665 18 3.39665H5.57916C4.91808 3.39665 4.39665 3.95533 4.39665 4.67228V6.8324C4.39665 7.17691 4.67598 7.85663 5.03911 8.21976L8.62387 11.9907C9.09873 12.5773 9.56423 13.5643 9.56423 14.4488V19.4302C9.56423 20.0447 9.98325 20.3426 10.1695 20.4451C10.5698 20.6685 11.0447 20.6592 11.4172 20.4358L12.7207 19.5978C13.0466 19.3929 13.4749 19.486 13.689 19.8119C13.8939 20.1378 13.8007 20.5661 13.4842 20.7803L12.1714 21.6276C11.7524 21.8697 11.2775 22 10.8026 22ZM13.3728 18.4059C13.019 18.4059 12.6838 18.2756 12.4417 18.0335C12.153 17.7448 12.0227 17.3259 12.0879 16.8882L12.2648 15.6312C12.3113 15.3054 12.5069 14.9236 12.7396 14.6908L15.4955 11.9349C15.5373 11.8782 15.5878 11.8274 15.6457 11.7847L16.0357 11.3947C16.4826 10.9478 16.9203 10.715 17.3951 10.6685C17.9724 10.6126 18.5497 10.8547 19.0897 11.3947C19.6298 11.9348 19.8718 12.5027 19.816 13.0893C19.7694 13.5549 19.5274 14.0018 19.0897 14.4488L15.7936 17.7448C15.5608 17.9776 15.1698 18.1731 14.8439 18.2197L13.5869 18.3966C13.5124 18.4059 13.4473 18.4059 13.3728 18.4059ZM15.8435 13.5516L13.7266 15.6685C13.6987 15.6964 13.6521 15.7895 13.6521 15.8268L13.4845 16.9906L14.6484 16.8231C14.6856 16.8137 14.7787 16.7672 14.8067 16.7393L16.918 14.6279C16.4902 14.3473 16.1233 13.9799 15.8435 13.5516ZM17.9422 13.6038L18.1028 13.4432C18.2983 13.2476 18.4193 13.0707 18.4286 12.9404C18.4473 12.7541 18.2611 12.5307 18.1028 12.3724C17.9538 12.2234 17.7396 12.0465 17.5534 12.0465H17.5255C17.3951 12.0558 17.2182 12.1676 17.0227 12.3724L16.865 12.5301C17.091 12.9984 17.473 13.3792 17.9422 13.6038Z" fill="#888A91"/>
</svg>
