<svg width="24" height="24" viewBox="0 0 24 24" fill="none" xmlns="http://www.w3.org/2000/svg">
<path fill-rule="evenodd" clip-rule="evenodd" d="M12.5443 3.21373C12.4 3.07688 12.2042 3 12 3C11.7958 3 11.6 3.07688 11.4557 3.21373L5.22547 9.11967C4.92484 9.40465 4.92484 9.86669 5.22547 10.1517C5.52609 10.4366 6.0135 10.4366 6.31412 10.1517L11.2302 5.4915V20.2703C11.2302 20.6733 11.5748 21 11.9999 21C12.4251 21 12.7697 20.6733 12.7697 20.2703V5.4914L17.6859 10.1517C17.9865 10.4366 18.4739 10.4366 18.7745 10.1517C19.0752 9.86669 19.0752 9.40465 18.7745 9.11967L12.5443 3.21373Z" fill="#888A91"/>
</svg>
