<svg width="24" height="24" viewBox="0 0 24 24" fill="none" xmlns="http://www.w3.org/2000/svg">
<path fill-rule="evenodd" clip-rule="evenodd" d="M12.7697 3.72973C12.7697 3.32671 12.4251 3 11.9999 3C11.5748 3 11.2302 3.32671 11.2302 3.72973V18.5085L6.31412 13.8483C6.0135 13.5633 5.52609 13.5633 5.22547 13.8483C4.92484 14.1333 4.92484 14.5953 5.22547 14.8803L11.4557 20.7863C11.6 20.9231 11.7958 21 12 21C12.2042 21 12.4 20.9231 12.5443 20.7863L18.7745 14.8803C19.0752 14.5953 19.0752 14.1333 18.7745 13.8483C18.4739 13.5633 17.9865 13.5633 17.6859 13.8483L12.7697 18.5086V3.72973Z" fill="#888A91"/>
</svg>
