<svg width="24" height="24" viewBox="0 0 24 24" fill="none" xmlns="http://www.w3.org/2000/svg">
<g id="uEB25-share">
<path id="Vector" d="M17.2905 3.62857C16.1412 3.62857 15.2095 4.56025 15.2095 5.70952C15.2095 6.8588 16.1412 7.79048 17.2905 7.79048C18.4398 7.79048 19.3714 6.8588 19.3714 5.70952C19.3714 4.56025 18.4398 3.62857 17.2905 3.62857ZM13.581 5.70952C13.581 3.66081 15.2418 2 17.2905 2C19.3392 2 21 3.66081 21 5.70952C21 7.75824 19.3392 9.41905 17.2905 9.41905C16.1321 9.41905 15.0978 8.88814 14.4176 8.05638L9.31146 10.6094C9.38176 10.8947 9.41905 11.193 9.41905 11.5C9.41905 11.807 9.38176 12.1053 9.31146 12.3906L14.4176 14.9436C15.0978 14.1119 16.1321 13.581 17.2905 13.581C19.3392 13.581 21 15.2418 21 17.2905C21 19.3392 19.3392 21 17.2905 21C15.2418 21 13.581 19.3392 13.581 17.2905C13.581 16.9835 13.6182 16.6852 13.6885 16.3999L8.58244 13.8469C7.90218 14.6786 6.86785 15.2095 5.70952 15.2095C3.66081 15.2095 2 13.5487 2 11.5C2 9.45129 3.66081 7.79048 5.70952 7.79048C6.86785 7.79048 7.90218 8.32139 8.58244 9.15314L13.6885 6.60009C13.6182 6.3148 13.581 6.01652 13.581 5.70952ZM5.70952 9.41905C4.56025 9.41905 3.62857 10.3507 3.62857 11.5C3.62857 12.6493 4.56025 13.581 5.70952 13.581C6.8588 13.581 7.79048 12.6493 7.79048 11.5C7.79048 10.3507 6.8588 9.41905 5.70952 9.41905ZM17.2905 15.2095C16.1412 15.2095 15.2095 16.1412 15.2095 17.2905C15.2095 18.4398 16.1412 19.3714 17.2905 19.3714C18.4398 19.3714 19.3714 18.4398 19.3714 17.2905C19.3714 16.1412 18.4398 15.2095 17.2905 15.2095Z" fill="#888A91"/>
</g>
</svg>
