<svg width="24" height="24" viewBox="0 0 24 24" fill="none" xmlns="http://www.w3.org/2000/svg">
<rect width="24" height="24" fill="white"/>
<path fill-rule="evenodd" clip-rule="evenodd" d="M12 2C12.5523 2 13 2.44772 13 3L13 6.34342C13 6.8957 12.5523 7.34342 12 7.34342C11.4477 7.34342 11 6.8957 11 6.34342L11 3C11 2.44772 11.4477 2 12 2ZM19.0713 4.92898C19.4618 5.31951 19.4618 5.95267 19.0713 6.3432L16.7071 8.70734C16.3166 9.09786 15.6835 9.09786 15.2929 8.70734C14.9024 8.31682 14.9024 7.68365 15.2929 7.29313L17.6571 4.92898C18.0476 4.53846 18.6808 4.53846 19.0713 4.92898ZM4.92898 4.92898C5.31951 4.53846 5.95267 4.53846 6.3432 4.92898L8.70734 7.29313C9.09787 7.68365 9.09787 8.31682 8.70734 8.70734C8.31682 9.09787 7.68365 9.09787 7.29313 8.70734L4.92898 6.3432C4.53846 5.95267 4.53846 5.31951 4.92898 4.92898ZM16.6566 12C16.6566 11.4477 17.1043 11 17.6566 11H21C21.5523 11 22 11.4477 22 12C22 12.5523 21.5523 13 21 13H17.6566C17.1043 13 16.6566 12.5523 16.6566 12ZM2 12C2 11.4477 2.44772 11 3 11H6.34315C6.89543 11 7.34315 11.4477 7.34315 12C7.34315 12.5523 6.89543 13 6.34315 13H3C2.44772 13 2 12.5523 2 12ZM8.70737 15.2929C9.09789 15.6834 9.09789 16.3166 8.70737 16.7071L6.34341 19.0711C5.95289 19.4616 5.31972 19.4616 4.9292 19.0711C4.53868 18.6805 4.53868 18.0474 4.9292 17.6569L7.29315 15.2929C7.68368 14.9024 8.31684 14.9024 8.70737 15.2929ZM15.2929 15.2929C15.6834 14.9024 16.3166 14.9024 16.7071 15.2929L19.0711 17.6569C19.4616 18.0474 19.4616 18.6805 19.0711 19.0711C18.6805 19.4616 18.0474 19.4616 17.6569 19.0711L15.2929 16.7071C14.9024 16.3166 14.9024 15.6834 15.2929 15.2929ZM12 16.6569C12.5523 16.6569 13 17.1046 13 17.6569L13 21C13 21.5523 12.5523 22 12 22C11.4477 22 11 21.5523 11 21V17.6569C11 17.1046 11.4477 16.6569 12 16.6569Z" fill="#888A91"/>
</svg>
