<svg width="24" height="24" viewBox="0 0 24 24" fill="none" xmlns="http://www.w3.org/2000/svg">
<path fill-rule="evenodd" clip-rule="evenodd" d="M3.03422 8.27166C2.802 6.23092 3.77312 4.12706 5.29314 3.36967C6.8765 2.59125 7.63651 2.96994 9.26209 5.20003C11.2255 7.89296 11.2888 8.35581 9.97988 9.78643L9.45209 10.3545L9.87432 10.9436C10.1065 11.2802 11.0354 12.2479 11.9221 13.0895L13.5266 14.6043L14.3499 13.9521C15.7433 12.8581 16.1233 12.9001 18.2978 14.3728C20.7467 16.0138 21 16.3084 21 17.4024C21 18.5385 20.1767 19.7798 18.9311 20.4951C18.2133 20.9158 17.7489 21 16.4611 21C15.1311 20.979 14.6455 20.8738 13.421 20.3057C8.48097 17.9915 3.49867 12.2269 3.03422 8.27166ZM9.70543 8.10335C9.70543 7.99816 9.13542 7.0935 8.41763 6.10469C7.00317 4.06395 6.53872 3.85356 5.44092 4.75822C3.05534 6.7148 4.25869 10.8173 8.52319 15.1723C12.9355 19.6956 17.2 21.0421 19.2689 18.6016C20.24 17.4445 20.0711 17.0868 18.0022 15.6562C17.01 14.9409 16.0811 14.3728 15.9755 14.3728C15.87 14.3728 15.4055 14.7095 14.9622 15.1092C14.4977 15.5089 13.9699 15.8455 13.7377 15.8455C12.5977 15.8455 8.22763 11.4695 8.22763 10.3124C8.22763 10.081 8.56541 9.53397 8.96653 9.09216C9.36765 8.62931 9.70543 8.1875 9.70543 8.10335ZM15.65 3.99997C15.65 3.64099 15.359 3.34997 15 3.34997C14.641 3.34997 14.35 3.64099 14.35 3.99997V8.79997C14.35 9.15896 14.641 9.44997 15 9.44997H19.8C20.159 9.44997 20.45 9.15896 20.45 8.79997C20.45 8.44099 20.159 8.14997 19.8 8.14997H15.65V3.99997Z" fill="#888A91"/>
</svg>
