<svg width="24" height="24" viewBox="0 0 24 24" fill="none" xmlns="http://www.w3.org/2000/svg">
<path d="M2 12C2 6.49841 6.49841 2 12 2C17.5016 2 22 6.49841 22 12C22 17.5016 17.5016 22 12 22C6.49841 22 2 17.5016 2 12ZM15.1259 8.8741C14.8534 8.60164 14.4117 8.60164 14.1392 8.8741L12 11.0133L9.86077 8.8741C9.58831 8.60164 9.14657 8.60164 8.87411 8.8741C8.60165 9.14655 8.60165 9.5883 8.87411 9.86076L11.0133 12L8.87411 14.1392C8.60165 14.4117 8.60165 14.8534 8.87411 15.1259C9.14657 15.3983 9.58831 15.3983 9.86077 15.1259L12 12.9866L14.1392 15.1259C14.4117 15.3983 14.8534 15.3983 15.1259 15.1259C15.3983 14.8534 15.3983 14.4117 15.1259 14.1392L12.9867 12L15.1259 9.86076C15.3983 9.5883 15.3983 9.14655 15.1259 8.8741Z" fill="#888A91"/>
</svg>
