<svg width="24" height="24" viewBox="0 0 24 24" fill="none" xmlns="http://www.w3.org/2000/svg">
<path fill-rule="evenodd" clip-rule="evenodd" d="M20.5819 6.24V4.02C20.5819 2.91 19.6819 2 18.5919 2H5.41187C4.32187 2 3.42188 2.91 3.42188 4.12V6.45C3.42188 7.05 3.82188 7.96 4.32188 8.47L8.11187 12.51C8.51187 13.01 8.91187 13.92 8.91187 14.63V19.98C8.91187 21.6 10.7019 22.51 12.0019 21.7L13.4019 20.79C13.4719 20.74 13.5419 20.69 13.6119 20.63C13.8119 20.45 13.7219 20.13 13.4919 19.98C12.7319 19.51 12.0319 18.81 11.5319 17.97C10.9419 17.01 10.6319 15.89 10.6319 14.75C10.6319 11.3 13.4319 8.5 16.8819 8.5C17.3619 8.5 17.8319 8.55 18.2719 8.66L18.2719 8.66001C18.4719 8.71 18.6719 8.76 18.8719 8.83C19.0519 8.89 19.2619 8.86 19.4019 8.73L19.5819 8.57C20.0819 8.06 20.5819 7.05 20.5819 6.24ZM16.8819 10C17.2419 10 17.5919 10.04 17.9219 10.12C20.0519 10.59 21.6319 12.49 21.6319 14.75C21.6319 15.64 21.3919 16.48 20.9519 17.2C20.1319 18.57 18.6219 19.5 16.8819 19.5C15.9419 19.5 15.0619 19.22 14.3219 18.73C13.7019 18.35 13.1919 17.82 12.8219 17.2C12.3819 16.48 12.1319 15.64 12.1319 14.75C12.1319 12.13 14.2619 10 16.8819 10ZM16.7119 16.47L19.2519 14.13C19.5519 13.85 19.5719 13.38 19.2919 13.07C19.0119 12.77 18.5419 12.75 18.2319 13.03L16.2219 14.88L15.5619 14.22C15.2719 13.93 14.7919 13.93 14.5019 14.22C14.2119 14.51 14.2119 14.99 14.5019 15.28L15.6719 16.45C15.8219 16.6 16.0119 16.67 16.2019 16.67C16.3819 16.67 16.5719 16.6 16.7119 16.47Z" fill="#04AE66"/>
</svg>
