<svg width="24" height="24" viewBox="0 0 24 24" fill="none" xmlns="http://www.w3.org/2000/svg">
<path d="M16.3562 10.634C16.6461 10.924 17.1163 10.924 17.4063 10.634L21.2506 6.71003C21.362 6.44087 21.3083 6.11951 21.0895 5.90071L17.4063 2.2175C17.1163 1.9275 16.6462 1.9275 16.3562 2.21749C16.0662 2.50748 16.0662 2.97766 16.3561 3.26765L18.7717 5.68321H2.74257C2.33246 5.68321 2 6.01567 2 6.42578C2 6.8359 2.33246 7.16836 2.74257 7.16836H18.7716L16.3562 9.58385C16.0662 9.87385 16.0662 10.344 16.3562 10.634ZM7.19832 13.366C6.90833 13.076 6.43816 13.076 6.14816 13.366L2.30387 17.29C2.19251 17.5591 2.24622 17.8805 2.46502 18.0993L6.14816 21.7825C6.43815 22.0725 6.90832 22.0725 7.19832 21.7825C7.48831 21.4925 7.48832 21.0223 7.19833 20.7323L4.78281 18.3168H20.8119C21.222 18.3168 21.5545 17.9843 21.5545 17.5742C21.5545 17.1641 21.222 16.8316 20.8119 16.8316H4.78283L7.19832 14.4161C7.48832 14.1262 7.48832 13.656 7.19832 13.366Z" fill="#888A91"/>
</svg>
