<svg width="24" height="24" viewBox="0 0 24 24" fill="none" xmlns="http://www.w3.org/2000/svg">
<path d="M4.46512 4.68604C4.46512 4.0162 5.01621 3.46511 5.68605 3.46511H17.407C18.0768 3.46511 18.6279 4.0162 18.6279 4.68604V8.17301H4.46512V4.68604ZM5.68605 2C4.20705 2 3 3.20704 3 4.68604V8.90557C3 8.90559 3 8.90561 3 8.90563V12.3828C3 13.7004 3.70762 14.9225 4.86845 15.5709L4.8701 15.5718L7.75817 17.2013L7.75816 17.2013L7.76237 17.2036C8.14269 17.4149 8.38187 17.8228 8.38187 18.2628V20.314C8.38187 21.793 9.58892 23 11.0679 23H12.0447C13.5237 23 14.7307 21.793 14.7307 20.314V18.2628C14.7307 17.8228 14.9699 17.4149 15.3502 17.2036L15.3502 17.2036L15.3544 17.2013L18.2454 15.5702L18.2455 15.5701C19.3916 14.9239 20.1126 13.7046 20.1126 12.3828V8.90563C20.1126 8.84752 20.1058 8.79099 20.093 8.73678V4.68604C20.093 3.20704 18.886 2 17.407 2H5.68605ZM4.46512 12.3828V9.63818H18.6475V12.3828C18.6475 13.1707 18.2159 13.9049 17.5258 14.294L17.5256 14.2941L14.6364 15.9242C13.7874 16.3969 13.2656 17.2972 13.2656 18.2628V20.314C13.2656 20.9838 12.7145 21.5349 12.0447 21.5349H11.0679C10.3981 21.5349 9.84699 20.9838 9.84699 20.314V18.2628C9.84699 17.2972 9.32519 16.3969 8.47614 15.9241L5.58697 14.2941L5.58697 14.2941L5.58391 14.2924C4.8899 13.9052 4.46512 13.1744 4.46512 12.3828Z" fill="#38DBC7"/>
</svg>
